<svg xmlns="http://www.w3.org/2000/svg" xmlns:xlink="http://www.w3.org/1999/xlink" fill="none" version="1.1" width="216" height="120" viewBox="0 0 216 120"><g><g><path d="M22.247999,66.984001L32.759998,66.984001L32.759998,10.968002L42.264,10.968002L42.264,76.344002L22.247999,76.344002L22.247999,66.984001ZM2.3759999,65.255997Q10.44,43.512001,13.176,21.408001L22.823999,21.408001Q20.087999,43.872002,13.103999,65.255997L2.3759999,65.255997ZM60.407997,22.056004Q66.455994,44.375999,68.975998,65.903999L59.759998,65.903999Q57.167999,43.800003,50.687996,22.056004L60.407997,22.056004ZM83.591995,42.216003L74.375999,37.176003L86.183998,11.400002L95.688004,11.400002L86.183998,31.992001L88.848,33.504002L93.024002,24.288002L102.168,24.288002L90.575996,49.919998L100.008,49.919998L100.008,59.208L75.888,59.208L83.591995,42.216003ZM75.599998,66.480003L100.368,64.104004L100.368,73.391998L75.599998,75.767998L75.599998,66.480003ZM104.03999,64.608002L117.072,64.608002L117.072,25.008003L105.12,25.008003L105.12,15.504002L139.32001,15.504002L139.32001,25.008003L127.296,25.008003L127.296,64.608002L140.328,64.608002L140.328,74.760002L104.03999,74.760002L104.03999,64.608002ZM178.2,17.952003L200.16,17.952003L198.936,41.712002L211.96799,41.712002L210.528,72.528L189.36,72.528L189.36,64.031998L201.384,64.031998L202.104,50.568001L178.2,50.568001L178.2,76.776001L168.76801,76.776001L168.76801,50.568001L146.88,50.568001L146.88,41.712002L168.696,41.712002L168.696,26.808002L149.75999,26.808002L149.75999,17.952003L168.696,17.952003L168.696,10.824001L178.2,10.824001L178.2,17.952003ZM189.57599,41.712002L190.44,26.808002L178.2,26.808002L178.2,41.712002L189.57599,41.712002ZM209.37601,11.400002L212.976,26.952003L203.75999,26.952003L200.16,11.400002L209.37601,11.400002Z" fill="#EB2828" fill-opacity="1"/></g><g><path d="M12.96000004,102.50030850927735Q15.744,99.30830950927734,16.848,94.55630870927735L19.9920001,94.55630870927735Q19.3920002,97.94030950927734,18.1680002,100.62830920927735L18.1680002,116.15630950927735L15.096,116.15630950927735L15.096,105.38030950927734Q14.2320001,106.36430950927735,12.96000004,107.44430950927735L12.96000004,102.50030850927735ZM19.0799999,115.14830950927734Q20.8800001,110.06031050927734,20.8800001,104.94830950927735L23.712,104.94830950927735Q23.712,110.13230850927735,22.272,115.14830950927734L19.0799999,115.14830950927734ZM19.6800003,102.69230950927735Q21.383999799999998,98.61230940927734,21.720000300000002,94.55630870927735L24.887999999999998,94.55630870927735L24.744,95.99630930927734L35.087998999999996,95.99630930927734Q34.752001,99.35630890927735,33.672001,102.66830950927735L30.455999,102.66830950927735Q31.056,101.06030950927735,31.559999,99.04430960927735L24.192,99.04430960927735Q23.759999999999998,100.91630950927734,23.016,102.69230950927735L19.6800003,102.69230950927735ZM24.048000000000002,113.18030950927735L25.92,113.18030950927735L25.92,100.94030950927734L28.896,100.94030950927734L28.896,116.15630950927735L24.048000000000002,116.15630950927735L24.048000000000002,113.18030950927735ZM33.480000000000004,104.92430950927735Q34.800001,109.89230950927734,34.800001,115.12430950927734L31.968,115.12430950927734Q31.968,109.96430950927734,30.431999,104.92430950927735L33.480000000000004,104.92430950927735ZM40.248001,96.78830910927735L40.559999000000005,94.43630980927735L43.704,94.43630980927735L43.391999999999996,96.78830910927735L46.751999,96.78830910927735L46.751999,102.47630950927734Q48.383999,98.54030890927734,48.576,94.31630900927735L51.792,94.31630900927735Q51.768002,95.42030910927734,51.599998,96.78830910927735L58.440002,96.78830910927735L58.440002,116.15630950927735L52.992001,116.15630950927735L52.992001,113.03631050927734L55.344002,113.03631050927734L55.344002,99.86030960927735L51.048,99.86030960927735Q50.591999,101.75630950927734,49.919998,103.24430950927734L46.751999,103.24430950927734L46.751999,115.82030850927734L37.511999,115.82030850927734L37.511999,96.78830910927735L40.248001,96.78830910927735ZM43.751999,112.86830950927734L43.751999,107.58831050927735L40.512001,107.58831050927735L40.512001,112.86830950927734L43.751999,112.86830950927734ZM43.751999,104.70830950927734L43.751999,99.74030970927734L40.512001,99.74030970927734L40.512001,104.70830950927734L43.751999,104.70830950927734ZM51.984001,103.79630950927734L53.496002,109.65230950927734L50.327999,109.65230950927734L48.816002,103.79630950927734L51.984001,103.79630950927734ZM61.200001,112.50831050927735L70.584,112.50831050927735L70.584,107.73230950927734L62.807999,107.73230950927734L62.807999,104.75630950927734L70.584,104.75630950927734L70.560001,100.34030910927734L65.543999,100.34030910927734Q65.04000099999999,101.99630950927734,64.439999,103.34030950927735L60.863998,103.34030950927735Q62.880001,99.02030940927735,63.456001,94.79630850927734L66.647999,94.79630850927734Q66.47999999999999,96.18830870927735,66.26400000000001,97.31630900927735L70.560001,97.31630900927735L70.560001,94.31630900927735L73.728001,94.31630900927735L73.728001,97.31630900927735L82.248001,97.31630900927735L82.248001,100.34030910927734L73.728001,100.34030910927734L73.728001,104.75630950927734L81.192001,104.75630950927734L81.192001,107.73230950927734L73.728001,107.73230950927734L73.728001,112.50831050927735L82.800003,112.50831050927735L82.800003,115.67630950927735L61.200001,115.67630950927735L61.200001,112.50831050927735ZM97.608002,106.38830950927735L97.608002,103.62830950927734L91.367996,103.62830950927734L91.367996,100.60430910927734L97.608002,100.60430910927734L97.608002,97.96430970927734Q95.136002,98.06030940927734,92.136002,98.06030940927734L92.136002,95.03631020927735Q99.744003,95.03631020927735,106.176003,94.41230960927734L106.176003,97.43630980927735Q104.375999,97.60430910927734,100.727997,97.84430980927735L100.727997,100.60430910927734L106.944,100.60430910927734L106.944,103.62830950927734L100.727997,103.62830950927734L100.727997,106.38830950927735L106.080002,106.38830950927735L106.080002,115.91630950927734L92.232002,115.91630950927734L92.232002,106.38830950927735L97.608002,106.38830950927735ZM84.888,116.15630950927735Q87.047997,111.09230950927734,87.816002,105.93231050927734L90.912003,105.93231050927734Q90.047997,111.88430950927734,88.272003,116.15630950927735L84.888,116.15630950927735ZM85.199997,100.19630910927734L90.863998,101.61230950927734L90.863998,104.82830950927735L85.199997,103.46030950927735L85.199997,100.19630910927734ZM85.68,94.55630870927735L90.888,95.90030860927735L90.888,99.16430950927735L85.68,97.82030960927734L85.68,94.55630870927735ZM102.984001,112.91630950927734L102.984001,109.38830950927735L95.328003,109.38830950927735L95.328003,112.91630950927734L102.984001,112.91630950927734ZM108.959999,104.37230950927734L124.08,104.37230950927734L126.384,94.53230860927735L129.72,94.53230860927735L127.416,104.37230950927734L131.04000000000002,104.37230950927734L131.04000000000002,107.51630950927735L108.959999,107.51630950927735L108.959999,104.37230950927734ZM109.704002,116.15630950927735Q111.912003,112.41230950927735,113.256,108.52430950927734L116.736,108.52430950927734Q115.536,112.74831050927735,113.688,116.15630950927735L109.704002,116.15630950927735ZM113.688,95.03631020927735L115.536,103.14830950927734L112.2,103.14830950927734L110.351997,95.03631020927735L113.688,95.03631020927735ZM120.936,95.03631020927735L122.4,103.14830950927734L119.088,103.14830950927734L117.624,95.03631020927735L120.936,95.03631020927735ZM126.744,108.52430950927734Q128.088,112.41230950927735,130.296,116.15630950927735L126.312,116.15630950927735Q124.464,112.74831050927735,123.264,108.52430950927734L126.744,108.52430950927734ZM142.104,115.91630950927734Q139.8,115.91630950927734,138.324,115.59230950927734Q136.848,115.26830850927735,135.648,114.47630850927735Q135.52800000000002,115.34030950927735,135.36,116.15630950927735L132.72,116.15630950927735Q133.344,113.37230850927735,133.56,110.99630950927734Q133.776,108.62030950927735,133.776,105.35630950927734L136.296,105.35630950927734Q136.248,109.02830850927734,136.05599999999998,111.16431050927734Q136.704,111.66831050927735,137.16,111.90830950927734L137.16,104.22830950927734L133.176,104.22830950927734L133.176,101.46830950927735L135.98399999999998,101.46830950927735L135.98399999999998,99.33230970927734L133.68,99.33230970927734L133.68,96.59630970927735L135.98399999999998,96.59630970927735L135.98399999999998,94.55630870927735L138.95999999999998,94.55630870927735L138.95999999999998,96.59630970927735L141.144,96.59630970927735L141.144,99.33230970927734L138.95999999999998,99.33230970927734L138.95999999999998,101.46830950927735L141.60001,101.46830950927735L141.60001,104.22830950927734L139.824,104.22830950927734L139.824,106.48431050927735L141.48,106.48431050927735L141.48,109.29230850927735L139.824,109.29230850927735L139.824,112.74831050927735Q140.832,112.89230950927734,142.104,112.89230950927734L155.04001,112.89230950927734L155.04001,115.91630950927734L142.104,115.91630950927734ZM141.60001,109.02830850927734L142.272,108.88430950927734L142.272,97.26830860927734L141.72,97.26830860927734L141.72,94.65230940927735L148.368,94.65230940927735L148.368,97.26830860927734L148.08,97.26830860927734L148.08,112.29230850927735L145.8,112.29230850927735L145.8,110.80430950927735L141.60001,111.66831050927735L141.60001,109.02830850927734ZM145.8,108.16431050927734L145.8,106.31630850927735L144.528,106.31630850927735L144.528,108.42831050927734L145.8,108.16431050927734ZM145.8,103.72430850927735L145.8,101.70830950927734L144.528,101.70830950927734L144.528,103.72430850927735L145.8,103.72430850927735ZM145.8,99.14030930927734L145.8,97.26830860927734L144.528,97.26830860927734L144.528,99.14030930927734L145.8,99.14030930927734ZM148.608,108.40430850927734Q149.75999,107.22830950927735,150.576,105.54830950927735Q149.472,102.40430950927734,149.04001,98.37230970927735L148.608,98.37230970927735L148.608,95.42030910927734L154.82401,95.42030910927734Q154.584,101.25230950927734,153.048,105.59630950927735Q153.84,107.20430950927735,155.04001,108.42831050927734L155.04001,112.53231050927735Q153.144,110.90031050927735,151.82401,108.42831050927734Q150.45599,110.90031050927735,148.608,112.53231050927735L148.608,108.40430850927734ZM151.2,98.37230970927735Q151.392,100.10030940927734,151.8,101.99630950927734Q152.23199,100.24430940927735,152.424,98.37230970927735L151.2,98.37230970927735ZM156.64799,108.64430950927735Q159.96001,104.56430950927734,161.808,100.00430960927734L157.51199,100.00430960927734L157.51199,97.02830890927734L160.248,97.02830890927734L160.248,94.43630980927735L163.32001,94.43630980927735L163.32001,97.02830890927734L165.98399,97.02830890927734Q165.28799,99.98030950927735,163.92,103.05230950927734L163.34399,104.22830950927734L163.34399,104.37230950927734L166.032,105.62030950927735L166.032,108.93231050927734L163.34399,107.68430850927734L163.34399,116.15630950927735L160.17599,116.15630950927735L160.17599,108.64430950927735L156.64799,108.64430950927735ZM165.84,112.60430950927734L170.688,112.60430950927734L170.688,102.90830850927735L166.56,102.90830850927735L166.56,99.76430890927735L170.688,99.76430890927735L170.688,94.62830920927735L173.856,94.62830920927735L173.856,99.76430890927735L178.224,99.76430890927735L178.224,102.90830850927735L173.856,102.90830850927735L173.856,112.60430950927734L178.944,112.60430950927734L178.944,115.74831050927735L165.84,115.74831050927735L165.84,112.60430950927734ZM182.064,95.10830880927735L202.728,95.10830880927735L202.728,98.18030930927735L185.16,98.18030930927735L185.16,112.53231050927735L202.728,112.53231050927735L202.728,115.60430950927734L182.064,115.60430950927734L182.064,95.10830880927735ZM185.976,108.83630950927734Q189.48,107.49230950927735,191.73599,106.05230950927734Q188.56799,102.95630950927735,187.12801,98.82830900927735L190.8,98.82830900927735Q192.048,101.94830850927734,194.304,104.06030950927735Q196.584,101.97230950927734,197.832,98.82830900927735L201.504,98.82830900927735Q200.064,102.95630950927735,196.896,106.05230950927734Q199.15201,107.49230950927735,202.65601,108.83630950927734L202.65601,112.22031050927734Q197.808,110.68430850927734,194.328,108.18830850927735Q190.8,110.68430850927734,185.976,112.22031050927734L185.976,108.83630950927734Z" fill="#3D3D3D" fill-opacity="1"/></g></g></svg>